<svg width="80" height="94" viewBox="0 0 80 94" fill="none" xmlns="http://www.w3.org/2000/svg">
    <path d="M39.928 1.79115e-05C31.6925 -0.00779594 23.6629 2.54115 16.9749 7.28636C10.2869 12.0316 5.279 18.7329 2.65948 26.4424C0.0399646 34.152 -0.0585819 42.4797 2.37778 50.2476C4.81414 58.0155 9.6621 64.8305 16.236 69.7287C16.5972 69.0972 16.939 68.485 17.2807 67.8728C9.73747 62.1113 4.74411 53.6916 3.34619 44.3767C1.94827 35.0618 4.25419 25.5741 9.78113 17.9001C15.3081 10.2262 23.6274 4.96116 32.9971 3.20745C42.3669 1.45374 52.0605 3.34737 60.0481 8.49184C68.0357 13.6363 73.698 21.6327 75.8493 30.8065C78.0006 39.9804 76.4742 49.6204 71.5895 57.708C66.7048 65.7956 58.8408 71.7036 49.644 74.1949C40.4472 76.6863 30.6309 75.5678 22.2505 71.0736C21.8648 71.6617 21.4841 72.2305 21.0789 72.8235C26.8502 75.969 33.3359 77.616 39.928 77.6102C45.0889 77.6102 50.1992 76.6065 54.9673 74.6564C59.7353 72.7062 64.0677 69.8479 67.717 66.2445C71.3663 62.6411 74.2611 58.3632 76.2361 53.6552C78.211 48.9471 79.2276 43.9011 79.2276 38.8051C79.2276 33.7092 78.211 28.6631 76.2361 23.9551C74.2611 19.247 71.3663 14.9692 67.717 11.3658C64.0677 7.76238 59.7353 4.90402 54.9673 2.95388C50.1992 1.00374 45.0889 1.78356e-05 39.928 1.79115e-05Z" fill="#222222"/>
    <path d="M61.9415 44.2717C60.5989 43.621 50.1907 38.651 45.133 38.651C44.7175 38.6456 44.3028 38.6893 43.8978 38.7812C41.4227 39.3886 30.2675 55.3059 20.4304 70.0229C20.0252 70.611 19.6444 71.1991 19.2587 71.792C12.4533 81.9778 6.47295 91.2621 4.69104 94.0001C6.31184 91.1994 11.8968 81.6403 17.9601 70.9677C18.297 70.3603 18.6387 69.7289 19.0049 69.1167C27.6849 53.7055 36.8386 36.6361 36.2527 34.2258C35.1934 29.8873 24.1016 21.8516 22.7591 20.8633C24.1016 21.5382 34.6173 26.7781 39.6945 26.7781C40.0888 26.7844 40.4824 26.7423 40.8662 26.6528C45.2599 25.6019 53.2614 14.5485 54.2231 13.2228C53.5201 14.669 47.4617 26.8842 48.5454 31.2226C49.6146 35.4743 60.5989 43.3269 61.9415 44.2717Z" fill="#222222"/>
    <path d="M57.1034 43.7267C57.1034 43.7267 57.1034 43.7267 57.1034 43.7701C56.9796 43.9237 56.8655 44.0847 56.7617 44.2522C56.8057 44.2522 56.8252 44.2907 56.8691 44.2907C56.9758 44.1164 57.0688 43.9343 57.1474 43.746L57.1034 43.7267Z" fill="#222222"/>
    <path d="M61.1506 59.8321C60.4672 59.514 55.0043 56.8627 52.3388 56.8627C52.1174 56.8589 51.8963 56.8799 51.6797 56.9254C49.5463 57.4508 41.867 69.0971 40.2218 71.599C41.1982 69.96 44.2982 64.6526 44.7864 63.8332C44.8021 63.7938 44.8253 63.7578 44.8548 63.7271C45.299 62.8208 48.3307 56.7807 47.7839 54.6115C47.2469 52.3603 41.5302 48.2051 40.8028 47.6844C41.4862 48.0219 46.9491 50.7599 49.5902 50.7599C49.8004 50.7665 50.0102 50.7371 50.2102 50.6732C52.1923 50.1911 55.5804 45.8526 56.7569 44.233C56.8606 44.0655 56.9748 43.9045 57.0986 43.7509C57.0986 43.7509 57.0986 43.7509 57.0986 43.7075C57.02 43.8958 56.927 44.0779 56.8204 44.2522C55.966 46.0021 53.5788 51.0347 54.0718 52.9918C54.6479 55.243 60.4281 59.326 61.1506 59.8321Z" fill="#157EFF"/>
    <path d="M27.2993 44.2089C26.7672 43.9583 22.2221 41.7456 20.6452 42.1457C19.2148 42.5073 12.8341 52.0615 10.8813 55.0117C12.1604 52.8858 15.4069 47.5785 15.7633 47.0096C16.0171 46.5276 18.2579 42.0831 17.8723 40.5261C17.4671 38.8389 12.9025 35.6188 12.9025 35.6188C12.9025 35.6188 17.8723 38.1881 19.5614 37.7687C21.2506 37.3493 24.126 33.2808 24.4434 32.8422C24.4434 32.8422 24.4434 32.8422 24.4434 32.9048C24.4434 32.9675 24.4434 32.8614 24.4873 32.8614C24.209 33.3676 21.9243 37.8314 22.3295 39.4077C22.7347 40.984 26.7916 43.8667 27.2993 44.2089Z" fill="#157EFF"/>
</svg>
